<?xml version="1.0" standalone="no"?>
<!DOCTYPE svg PUBLIC "-//W3C//DTD SVG 20010904//EN"
 "http://www.w3.org/TR/2001/REC-SVG-20010904/DTD/svg10.dtd">
<svg version="1.0" xmlns="http://www.w3.org/2000/svg"
 width="700.000000pt" height="700.000000pt" viewBox="0 0 700.000000 700.000000"
 preserveAspectRatio="xMidYMid meet">
<metadata>
Created by potrace 1.14, written by Peter Selinger 2001-2017
</metadata>
<g transform="translate(0.000000,700.000000) scale(0.100000,-0.100000)"
fill="#000000" stroke="none">
<path d="M1407 6989 c-267 -31 -526 -129 -739 -279 -371 -262 -608 -666 -657
-1122 -15 -135 -15 -4041 0 -4176 81 -745 652 -1315 1404 -1402 126 -14 4041
-14 4173 1 743 80 1321 658 1401 1401 15 135 15 4041 0 4176 -81 744 -657
1320 -1401 1401 -115 13 -4073 13 -4181 0z m4190 -1759 c55 -50 44 -84 -63
-201 -262 -284 -402 -482 -550 -779 -122 -245 -166 -379 -279 -835 -158 -642
-302 -947 -569 -1210 -233 -229 -503 -337 -876 -352 -377 -15 -772 90 -1026
273 -41 30 -79 54 -83 54 -11 0 -150 -301 -196 -425 -39 -104 -79 -255 -90
-338 -9 -65 -41 -101 -90 -101 -54 0 -85 38 -85 104 0 161 86 415 256 750 246
488 560 916 979 1336 335 336 619 554 1000 769 171 96 185 108 185 154 0 49
-35 84 -82 83 -40 -1 -204 -85 -379 -193 -593 -368 -1141 -926 -1554 -1581
-115 -181 -138 -208 -179 -208 -60 0 -88 35 -141 177 -56 147 -77 256 -82 438
-8 253 29 449 125 674 183 424 584 784 1137 1021 525 226 1157 349 2060 403
28 2 165 4 306 5 241 2 256 1 276 -18z"/>
</g>
</svg>
